<svg width="255" height="50" viewBox="0 0 255 50" fill="none" xmlns="http://www.w3.org/2000/svg">
<path d="M25 49C38.2548 49 49 38.2548 49 25C49 11.7452 38.2548 1 25 1C11.7452 1 1 11.7452 1 25C1 38.2548 11.7452 49 25 49Z" stroke="#FA4824" stroke-width="1.255"/>
<path d="M12.8857 29.1142L6.02859 35.9714M8.54288 8.54281L41.6857 41.6857L8.54288 8.54281ZM20.8857 31.3999L24.7714 35.2857L20.8857 31.3999ZM16.0857 35.9714L28.4286 48.3142L16.0857 35.9714ZM3.97145 14.7142L10.6 21.3428L3.97145 14.7142ZM18.3714 2.37138L33.4572 17.2285L18.3714 2.37138ZM15.4 17L1.91431 30.2571L15.4 17ZM20.6572 21.1142L16.3143 25.4571L20.6572 21.1142ZM48.3143 22.2571L35.7429 34.8285L48.3143 22.2571ZM34.1429 24.5428L30.0286 28.6571L34.1429 24.5428ZM45.5714 13.3428L41.2286 17.6857L45.5714 13.3428ZM24.5429 26.3714L9.00002 41.9142L24.5429 26.3714ZM28.2 39.1714L34.1429 45.1142L28.2 39.1714Z" stroke="#FA4824" stroke-width="0.94125" stroke-linecap="square"/>
<path d="M37.5714 25.2286C39.9699 25.2286 41.9142 23.2842 41.9142 20.8857C41.9142 18.4873 39.9699 16.5429 37.5714 16.5429C35.1729 16.5429 33.2285 18.4873 33.2285 20.8857C33.2285 23.2842 35.1729 25.2286 37.5714 25.2286Z" stroke="#FA4824" stroke-width="0.94125"/>
<path d="M14.7143 29.1143C15.9767 29.1143 17 28.091 17 26.8286C17 25.5662 15.9767 24.5429 14.7143 24.5429C13.4519 24.5429 12.4286 25.5662 12.4286 26.8286C12.4286 28.091 13.4519 29.1143 14.7143 29.1143Z" stroke="#FA4824" stroke-width="0.94125"/>
<path d="M26.3714 39.1714C27.6338 39.1714 28.6571 38.148 28.6571 36.8857C28.6571 35.6233 27.6338 34.6 26.3714 34.6C25.109 34.6 24.0857 35.6233 24.0857 36.8857C24.0857 38.148 25.109 39.1714 26.3714 39.1714Z" stroke="#FA4824" stroke-width="0.94125"/>
<path fill-rule="evenodd" clip-rule="evenodd" d="M71.4262 19.5361C71.0328 18.9175 70.4426 18.5052 69.8525 18.299C68.8689 17.8866 67.8852 17.6804 66.9016 17.8866C66.5082 17.8866 66.1148 18.0928 65.918 18.299C65.5246 18.5052 65.3279 18.7113 65.1311 19.1237C64.9344 19.5361 64.9344 19.9485 64.9344 20.3608C64.9344 20.7732 64.9344 21.1856 65.1311 21.3918C65.3279 21.5979 65.5246 22.0103 65.918 22.2165C66.3115 22.4227 66.5082 22.6289 67.0984 22.8351C67.4918 23.0412 68.082 23.2474 68.4754 23.2474C69.0656 23.4536 69.6557 23.6598 70.2459 23.866C70.8361 24.0722 71.4262 24.4845 72.0164 24.8969C72.6066 25.3093 73 25.7216 73.3934 26.5464C73.7869 27.1649 73.9836 27.9897 73.9836 28.8144C73.9836 29.8454 73.7869 30.6701 73.3934 31.4948C73 32.3196 72.6066 32.9381 72.0164 33.3505C71.4262 33.7629 70.6393 34.1753 69.8525 34.3814C69.0656 34.5876 68.082 34.7938 67.2951 34.7938C66.1148 34.7938 64.9344 34.5876 63.7541 34.1753C62.7705 33.7629 61.7869 33.1443 61 32.1134L63.3607 29.8454C63.7541 30.4639 64.3443 31.0825 65.1311 31.2887C65.918 31.701 66.5082 31.9072 67.2951 31.9072C67.6885 31.9072 68.082 31.9072 68.4754 31.701C68.8689 31.701 69.2623 31.4948 69.459 31.2887C69.8525 31.0825 70.0492 30.6701 70.2459 30.4639C70.4426 30.0515 70.4426 29.6392 70.4426 29.2268C70.4426 28.8144 70.2459 28.4021 70.0492 27.9897C69.8525 27.5773 69.459 27.3711 69.0656 27.1649C68.6721 26.9588 68.2787 26.7526 67.6885 26.5464L66.1148 25.9278C65.5246 25.7216 64.9344 25.5155 64.541 25.3093C63.9508 25.1031 63.5574 24.6907 63.1639 24.2783C62.7705 23.866 62.377 23.2474 62.1803 22.8351C61.9836 22.2165 61.7869 21.5979 61.7869 20.567C61.7869 19.5361 61.9836 18.7113 62.3771 18.0928C62.7705 17.4742 63.3607 16.8557 63.9508 16.4433C64.541 16.0309 65.3279 15.6186 66.1148 15.4124C66.9016 15.2062 67.6885 15 68.4754 15C69.459 15 70.2459 15.2062 71.2295 15.4124C72.2131 15.8247 73 16.2371 73.7869 16.8557L71.4262 19.5361ZM85.3934 15.4124H91.2951C92.2787 15.4124 93.2623 15.4124 94.0492 15.6186C94.8361 15.8247 95.623 16.0309 96.2131 16.6495C96.8033 17.0619 97.1967 17.6804 97.5902 18.299C97.9836 18.9175 97.9836 19.7423 97.9836 20.7732C97.9836 21.8041 97.7869 22.6289 97.3934 23.4536C97 24.0722 96.6066 24.6907 95.8197 25.1031C95.2295 25.5155 94.4426 25.9278 93.6557 26.134C92.8689 26.5464 91.8852 26.5464 91.0984 26.5464H88.541V34.3814H85.3934V15.4124ZM90.7049 23.6598C91.2951 23.6598 91.6885 23.6598 92.2787 23.4536C92.6721 23.4536 93.0656 23.2474 93.6557 23.0412C94.0492 22.8351 94.2459 22.6289 94.6393 22.2165C94.8361 21.8041 95.0328 21.3918 95.0328 20.7732C95.0328 20.1546 94.8361 19.7423 94.6393 19.3299C94.4426 18.9175 94.0492 18.7113 93.8525 18.5052C93.459 18.299 93.0656 18.0928 92.6721 18.0928C92.2787 18.0928 91.6885 18.0928 91.2951 18.0928H88.9344V23.4536H90.7049V23.6598ZM109.393 15.4124H112.541V31.2887H120.213V34.3814H109.393V15.4124ZM129.262 24.8969C129.262 23.4536 129.459 22.0103 130.049 20.7732C130.443 19.5361 131.23 18.5052 132.016 17.6804C132.803 16.8557 133.984 16.2371 135.164 15.6186C136.344 15.2062 137.721 15 139.098 15C140.475 15 141.852 15.2062 143.033 15.6186C144.213 16.0309 145.197 16.6495 146.18 17.6804C146.967 18.5052 147.754 19.5361 148.148 20.7732C148.541 22.0103 148.934 23.4536 148.934 24.8969C148.934 26.3402 148.738 27.5773 148.148 29.0206C147.164 31.4948 145.393 33.3505 143.033 34.1753C141.852 34.5876 140.475 35 139.098 35C137.721 35 136.344 34.7938 135.164 34.1753C133.984 33.7629 133 32.9381 132.016 32.1134C131.23 31.2887 130.443 30.0515 130.049 29.0206C129.656 27.5773 129.262 26.3402 129.262 24.8969ZM132.803 24.8969C132.803 25.9278 133 26.7526 133.197 27.7835C133.59 28.6082 133.984 29.433 134.574 30.0515C135.164 30.6701 135.754 31.0825 136.541 31.4948C137.328 31.9072 138.115 32.1134 139.098 32.1134C140.082 32.1134 140.869 31.9072 141.656 31.4948C142.443 31.0825 143.033 30.6701 143.623 30.0515C144.213 29.433 144.607 28.6082 145 27.7835C145.393 26.9588 145.393 25.9278 145.393 24.8969C145.393 23.866 145.197 23.0412 145 22.2165C144.803 21.3918 144.213 20.567 143.82 19.9485C143.23 19.3299 142.639 18.9175 141.852 18.5052C141.066 18.0928 140.082 17.8866 139.295 17.8866C138.311 17.8866 137.525 18.0928 136.738 18.5052C135.951 18.9175 135.361 19.3299 134.77 19.9485C134.18 20.567 133.787 21.3918 133.59 22.2165C133 23.0412 132.803 24.0722 132.803 24.8969ZM163.295 18.5052H157.787V15.4124H172.148V18.299H166.639V34.3814H163.492L163.295 18.5052ZM182.771 15.4124H194.77V18.299H185.918V23.0412H194.18V25.9278H185.918V31.2887H195.164V34.3814H182.771V15.4124ZM212.475 15.4124H215.23L223.098 34.3814H219.361L217.59 30.0515H209.721L208.148 34.3814H204.607L212.475 15.4124ZM216.607 27.1649L213.852 19.5361L211.098 27.1649H216.607ZM233.328 15.4124H238.443L243.164 28.8144L247.885 15.4124H253V34.3814H249.852V19.1237L244.344 34.3814H242.18L236.672 19.1237V34.3814H233.525L233.328 15.4124Z" fill="#FA4824"/>
</svg>
